<svg xmlns="http://www.w3.org/2000/svg" xmlns:xlink="http://www.w3.org/1999/xlink" width="500" zoomAndPan="magnify" viewBox="0 0 375 374.999991" height="500" preserveAspectRatio="xMidYMid meet" version="1.0"><defs><g/><clipPath id="eacfcd5147"><path d="M 147.582031 92.402344 L 193 92.402344 L 193 218.960938 L 147.582031 218.960938 Z M 147.582031 92.402344 " clip-rule="nonzero"/></clipPath><clipPath id="300113f76e"><path d="M 192.714844 92.402344 L 238.332031 92.402344 L 238.332031 218.960938 L 192.714844 218.960938 Z M 192.714844 92.402344 " clip-rule="nonzero"/></clipPath></defs><g clip-path="url(#eacfcd5147)"><path fill="#393536" d="M 191.710938 214.261719 C 190.074219 213.734375 151.664062 200.9375 151.664062 169.753906 L 151.664062 124.320312 L 155.367188 123.976562 C 159.449219 123.59375 163.535156 122.679688 167.519531 121.253906 C 176.960938 117.875 184.792969 112.058594 189.566406 104.878906 L 192.964844 99.769531 L 192.964844 92.398438 L 186.171875 102.617188 C 181.875 109.070312 174.761719 114.324219 166.144531 117.40625 C 162.484375 118.71875 158.726562 119.558594 154.988281 119.90625 L 147.582031 120.601562 L 147.582031 169.753906 C 147.582031 183.914062 154.871094 196.726562 168.667969 206.800781 C 178.917969 214.289062 189.300781 217.773438 190.449219 218.148438 L 191.710938 218.554688 L 192.964844 218.960938 L 192.964844 214.667969 L 191.710938 214.261719 " fill-opacity="1" fill-rule="nonzero"/></g><g clip-path="url(#300113f76e)"><path fill="#656263" d="M 195.484375 218.148438 C 196.632812 217.773438 207.019531 214.289062 217.269531 206.800781 C 231.0625 196.726562 238.351562 183.914062 238.351562 169.753906 L 238.351562 120.601562 L 230.945312 119.90625 C 227.203125 119.558594 223.453125 118.71875 219.789062 117.40625 C 211.171875 114.324219 204.058594 109.070312 199.765625 102.617188 L 196.367188 97.507812 L 192.964844 92.398438 L 192.964844 99.769531 L 196.367188 104.878906 C 201.144531 112.058594 208.972656 117.875 218.414062 121.253906 C 222.398438 122.679688 226.488281 123.59375 230.566406 123.976562 L 234.269531 124.320312 L 234.269531 169.753906 C 234.269531 200.9375 195.859375 213.734375 194.226562 214.261719 L 192.964844 214.667969 L 192.964844 218.960938 L 194.222656 218.554688 L 195.484375 218.148438 " fill-opacity="1" fill-rule="nonzero"/></g><path fill="#393536" d="M 168.898438 125.097656 C 164.480469 126.679688 160.046875 127.640625 155.746094 128.042969 L 155.746094 162.578125 L 164.917969 156.503906 L 164.917969 142.707031 L 173.207031 142.707031 L 175.675781 146.128906 L 173.207031 144.730469 L 173.207031 154.394531 L 175 154.394531 L 175 150.21875 L 192.964844 139.015625 L 192.964844 107.140625 C 187.941406 114.695312 179.503906 121.300781 168.898438 125.097656 " fill-opacity="1" fill-rule="nonzero"/><path fill="#3871c1" d="M 192.152344 166.871094 L 185.777344 166.871094 L 185.777344 160.492188 L 192.152344 160.492188 Z M 192.152344 175.230469 L 185.777344 175.230469 L 185.777344 168.851562 L 192.152344 168.851562 Z M 155.90625 172.910156 C 158.511719 199.210938 192.964844 210.375 192.964844 210.375 L 192.964844 149.1875 L 155.90625 172.910156 " fill-opacity="1" fill-rule="nonzero"/><path fill="#51ade5" d="M 200.355469 166.871094 L 193.976562 166.871094 L 193.976562 160.492188 L 200.355469 160.492188 Z M 200.355469 175.230469 L 193.976562 175.230469 L 193.976562 168.851562 L 200.355469 168.851562 Z M 230.089844 172.285156 L 193.066406 149.125 L 192.964844 149.1875 L 192.964844 210.375 C 192.964844 210.375 227.984375 199.035156 230.089844 172.285156 " fill-opacity="1" fill-rule="nonzero"/><path fill="#656263" d="M 230.1875 162.175781 L 230.1875 128.042969 C 225.886719 127.640625 221.453125 126.679688 217.039062 125.097656 C 206.429688 121.300781 197.996094 114.695312 192.964844 107.140625 L 192.964844 139.015625 L 193.066406 138.953125 L 230.1875 162.175781 " fill-opacity="1" fill-rule="nonzero"/><g fill="#393536" fill-opacity="1"><g transform="translate(113.13456, 256.500672)"><g><path d="M 19.34375 -7.703125 C 19.34375 -6.128906 18.941406 -4.734375 18.140625 -3.515625 C 17.347656 -2.296875 16.195312 -1.347656 14.6875 -0.671875 C 13.1875 0.00390625 11.421875 0.34375 9.390625 0.34375 C 7.703125 0.34375 6.285156 0.226562 5.140625 0 C 3.992188 -0.238281 2.800781 -0.65625 1.5625 -1.25 L 1.5625 -7.359375 C 2.875 -6.691406 4.234375 -6.171875 5.640625 -5.796875 C 7.054688 -5.421875 8.351562 -5.234375 9.53125 -5.234375 C 10.550781 -5.234375 11.296875 -5.40625 11.765625 -5.75 C 12.242188 -6.101562 12.484375 -6.5625 12.484375 -7.125 C 12.484375 -7.46875 12.382812 -7.769531 12.1875 -8.03125 C 12 -8.289062 11.691406 -8.550781 11.265625 -8.8125 C 10.847656 -9.082031 9.726562 -9.628906 7.90625 -10.453125 C 6.25 -11.203125 5.003906 -11.929688 4.171875 -12.640625 C 3.347656 -13.347656 2.734375 -14.15625 2.328125 -15.0625 C 1.929688 -15.976562 1.734375 -17.0625 1.734375 -18.3125 C 1.734375 -20.65625 2.582031 -22.476562 4.28125 -23.78125 C 5.988281 -25.09375 8.328125 -25.75 11.296875 -25.75 C 13.929688 -25.75 16.613281 -25.140625 19.34375 -23.921875 L 17.25 -18.625 C 14.875 -19.71875 12.820312 -20.265625 11.09375 -20.265625 C 10.207031 -20.265625 9.5625 -20.109375 9.15625 -19.796875 C 8.75 -19.484375 8.546875 -19.09375 8.546875 -18.625 C 8.546875 -18.132812 8.800781 -17.691406 9.3125 -17.296875 C 9.832031 -16.898438 11.234375 -16.179688 13.515625 -15.140625 C 15.703125 -14.160156 17.21875 -13.101562 18.0625 -11.96875 C 18.914062 -10.84375 19.34375 -9.421875 19.34375 -7.703125 Z M 19.34375 -7.703125 "/></g></g></g><g fill="#393536" fill-opacity="1"><g transform="translate(133.654891, 256.500672)"><g><path d="M 17.8125 0 L 2.75 0 L 2.75 -25.390625 L 17.8125 -25.390625 L 17.8125 -19.875 L 9.609375 -19.875 L 9.609375 -15.890625 L 17.203125 -15.890625 L 17.203125 -10.390625 L 9.609375 -10.390625 L 9.609375 -5.59375 L 17.8125 -5.59375 Z M 17.8125 0 "/></g></g></g><g fill="#393536" fill-opacity="1"><g transform="translate(153.168302, 256.500672)"><g><path d="M 14.046875 -20.125 C 12.410156 -20.125 11.132812 -19.453125 10.21875 -18.109375 C 9.3125 -16.773438 8.859375 -14.9375 8.859375 -12.59375 C 8.859375 -7.707031 10.71875 -5.265625 14.4375 -5.265625 C 15.550781 -5.265625 16.632812 -5.421875 17.6875 -5.734375 C 18.75 -6.046875 19.8125 -6.421875 20.875 -6.859375 L 20.875 -1.0625 C 18.75 -0.125 16.351562 0.34375 13.6875 0.34375 C 9.851562 0.34375 6.914062 -0.765625 4.875 -2.984375 C 2.832031 -5.210938 1.8125 -8.425781 1.8125 -12.625 C 1.8125 -15.25 2.304688 -17.554688 3.296875 -19.546875 C 4.285156 -21.546875 5.707031 -23.078125 7.5625 -24.140625 C 9.414062 -25.210938 11.601562 -25.75 14.125 -25.75 C 16.863281 -25.75 19.484375 -25.15625 21.984375 -23.96875 L 19.875 -18.5625 C 18.9375 -19 18 -19.367188 17.0625 -19.671875 C 16.125 -19.972656 15.117188 -20.125 14.046875 -20.125 Z M 14.046875 -20.125 "/></g></g></g><g fill="#393536" fill-opacity="1"><g transform="translate(176.240654, 256.500672)"><g><path d="M 24.328125 -25.390625 L 24.328125 -10.109375 C 24.328125 -6.785156 23.382812 -4.210938 21.5 -2.390625 C 19.625 -0.566406 16.914062 0.34375 13.375 0.34375 C 9.90625 0.34375 7.242188 -0.539062 5.390625 -2.3125 C 3.535156 -4.082031 2.609375 -6.628906 2.609375 -9.953125 L 2.609375 -25.390625 L 9.5 -25.390625 L 9.5 -10.484375 C 9.5 -8.691406 9.832031 -7.390625 10.5 -6.578125 C 11.175781 -5.765625 12.164062 -5.359375 13.46875 -5.359375 C 14.875 -5.359375 15.890625 -5.757812 16.515625 -6.5625 C 17.148438 -7.375 17.46875 -8.691406 17.46875 -10.515625 L 17.46875 -25.390625 Z M 24.328125 -25.390625 "/></g></g></g><g fill="#393536" fill-opacity="1"><g transform="translate(203.149717, 256.500672)"><g><path d="M 9.609375 -9.234375 L 9.609375 0 L 2.75 0 L 2.75 -25.390625 L 11.0625 -25.390625 C 17.957031 -25.390625 21.40625 -22.890625 21.40625 -17.890625 C 21.40625 -14.941406 19.972656 -12.664062 17.109375 -11.0625 L 24.5 0 L 16.71875 0 L 11.34375 -9.234375 Z M 9.609375 -14.390625 L 10.890625 -14.390625 C 13.285156 -14.390625 14.484375 -15.453125 14.484375 -17.578125 C 14.484375 -19.316406 13.304688 -20.1875 10.953125 -20.1875 L 9.609375 -20.1875 Z M 9.609375 -14.390625 "/></g></g></g><g fill="#393536" fill-opacity="1"><g transform="translate(227.211628, 256.500672)"><g><path d="M 17.8125 0 L 2.75 0 L 2.75 -25.390625 L 17.8125 -25.390625 L 17.8125 -19.875 L 9.609375 -19.875 L 9.609375 -15.890625 L 17.203125 -15.890625 L 17.203125 -10.390625 L 9.609375 -10.390625 L 9.609375 -5.59375 L 17.8125 -5.59375 Z M 17.8125 0 "/></g></g></g><g fill="#393536" fill-opacity="1"><g transform="translate(246.725039, 256.500672)"><g><path d="M 24.296875 -13.234375 C 24.296875 -8.992188 23.128906 -5.726562 20.796875 -3.4375 C 18.460938 -1.144531 15.179688 0 10.953125 0 L 2.75 0 L 2.75 -25.390625 L 11.53125 -25.390625 C 15.601562 -25.390625 18.75 -24.347656 20.96875 -22.265625 C 23.1875 -20.179688 24.296875 -17.171875 24.296875 -13.234375 Z M 17.171875 -12.984375 C 17.171875 -15.316406 16.707031 -17.039062 15.78125 -18.15625 C 14.863281 -19.28125 13.46875 -19.84375 11.59375 -19.84375 L 9.609375 -19.84375 L 9.609375 -5.625 L 11.125 -5.625 C 13.207031 -5.625 14.734375 -6.226562 15.703125 -7.4375 C 16.679688 -8.644531 17.171875 -10.492188 17.171875 -12.984375 Z M 17.171875 -12.984375 "/></g></g></g><g fill="#3871c1" fill-opacity="1"><g transform="translate(167.670184, 277.435148)"><g/></g></g><g fill="#3871c1" fill-opacity="1"><g transform="translate(173.131121, 277.435148)"><g><path d="M 0.421875 -2.890625 L 0.421875 -4.609375 L 4.078125 -4.609375 L 4.078125 -2.890625 Z M 0.421875 -2.890625 "/></g></g></g><g fill="#3871c1" fill-opacity="1"><g transform="translate(179.462903, 277.435148)"><g/></g></g><g fill="#3871c1" fill-opacity="1"><g transform="translate(184.927726, 277.435148)"><g><path d="M 7.375 0 L 6.640625 -2.375 L 3 -2.375 L 2.28125 0 L 0 0 L 3.515625 -10.03125 L 6.109375 -10.03125 L 9.640625 0 Z M 6.140625 -4.15625 C 5.472656 -6.300781 5.09375 -7.515625 5 -7.796875 C 4.914062 -8.085938 4.859375 -8.3125 4.828125 -8.46875 C 4.679688 -7.882812 4.25 -6.445312 3.53125 -4.15625 Z M 6.140625 -4.15625 "/></g></g></g><g fill="#3871c1" fill-opacity="1"><g transform="translate(196.406614, 277.435148)"><g><path d="M 1.25 0 L 1.25 -9.984375 L 3.375 -9.984375 L 3.375 0 Z M 1.25 0 "/></g></g></g><g fill="#3871c1" fill-opacity="1"><g transform="translate(202.868091, 277.435148)"><g/></g></g><g fill="#3871c1" fill-opacity="1"><g transform="translate(208.332914, 277.435148)"><g><path d="M 0.421875 -2.890625 L 0.421875 -4.609375 L 4.078125 -4.609375 L 4.078125 -2.890625 Z M 0.421875 -2.890625 "/></g></g></g><g fill="#3871c1" fill-opacity="1"><g transform="translate(214.662369, 277.435148)"><g/></g></g></svg>